<svg xmlns="http://www.w3.org/2000/svg" xmlns:xlink="http://www.w3.org/1999/xlink" id="Capa_1" x="0" y="0" version="1.1" viewBox="0 0 33 30" style="enable-background:new 0 0 33 30" xml:space="preserve"><g id="First_x5F_aid_x5F_kit"><g><path style="fill-rule:evenodd;clip-rule:evenodd" d="M15,23h3v-4h4v-3h-4v-4h-3v4h-4v3h4V23z M31,5h-7V2c0-1.104-0.896-2-2-2H11 C9.896,0,9,0.896,9,2v3H2C0.896,5,0,5.896,0,7v21c0,1.104,0.896,2,2,2h29c1.104,0,2-0.896,2-2V7C33,5.896,32.104,5,31,5z M12,3h9 v2h-9V3z M30,27H3V8h27V27z"/></g></g></svg>