<svg xmlns="http://www.w3.org/2000/svg" xmlns:xlink="http://www.w3.org/1999/xlink" id="Capa_1" x="0" y="0" version="1.1" viewBox="0 0 32 32" style="enable-background:new 0 0 32 32" xml:space="preserve"><g id="Remove"><g><path style="fill-rule:evenodd;clip-rule:evenodd" d="M21,14H11c-1.104,0-2,0.895-2,2c0,1.104,0.896,2,2,2h10 c1.104,0,2-0.896,2-2C23,14.896,22.105,14,21,14z M16,0C7.163,0,0,7.163,0,16s7.163,16,16,16c8.837,0,16-7.163,16-16 S24.837,0,16,0z M16,29C8.832,29,3,23.168,3,16S8.832,3,16,3c7.168,0,13,5.832,13,13S23.168,29,16,29z"/></g></g></svg>