<svg xmlns="http://www.w3.org/2000/svg" xmlns:xlink="http://www.w3.org/1999/xlink" id="Capa_1" x="0" y="0" version="1.1" viewBox="0 0 32 32" style="enable-background:new 0 0 32 32" xml:space="preserve"><g id="Stop"><g><path style="fill-rule:evenodd;clip-rule:evenodd" d="M16,0C7.163,0,0,7.164,0,16s7.163,16,16,16c8.837,0,16-7.164,16-16 S24.837,0,16,0z M3,16C3,8.832,8.832,3,16,3c3.045,0,5.842,1.06,8.06,2.819L5.819,24.06C4.06,21.842,3,19.045,3,16z M16,29 c-3.045,0-5.842-1.06-8.06-2.819l18.24-18.24C27.94,10.158,29,12.956,29,16C29,23.169,23.168,29,16,29z"/></g></g></svg>